<?xml version="1.0" encoding="UTF-8"?>
<svg width="32px" height="32px" viewBox="0 0 32 32" version="1.1" xmlns="http://www.w3.org/2000/svg" xmlns:xlink="http://www.w3.org/1999/xlink">
    <!-- Generator: Sketch 61.2 (89653) - https://sketch.com -->
    <title>controls/close</title>
    <desc>Created with Sketch.</desc>
    <g id="controls/close" stroke="none" stroke-width="1" fill="none" fill-rule="evenodd">
        <path d="M22.7740156,9.32038487 C23.2234763,9.76410782 23.2234763,10.4613867 22.7740156,10.9684987 L17.6548889,15.9935927 L22.7740156,21.0473486 C23.2234763,21.4910715 23.2234763,22.1883504 22.7740156,22.6954624 C22.5171808,22.8856294 22.2603461,23.0124073 21.9393027,23.0124073 C21.6182593,23.0124073 21.3614246,22.8856294 21.1045899,22.6954624 L15.9808889,17.6375927 L10.8954101,22.6320734 C10.6385754,22.8856294 10.3817407,23.0124073 10.0606973,23.0124073 C9.73965388,23.0124073 9.48281916,22.8856294 9.22598445,22.6954624 C8.7765237,22.2517394 8.7765237,21.5544605 9.22598445,21.0473486 L14.3298889,16.0075927 L9.22598445,10.9684987 C8.7765237,10.5247757 8.7765237,9.82749681 9.22598445,9.32038487 C9.6754452,8.87666192 10.3817407,8.87666192 10.8954101,9.32038487 L15.9998889,14.3585927 L21.1045899,9.32038487 C21.5540507,8.87666192 22.2603461,8.87666192 22.7740156,9.32038487 Z" id="Combined-Shape" fill="#ffffff"></path>
    </g>
</svg>