<svg xmlns="http://www.w3.org/2000/svg" viewBox="0 0 16 16"><path class="svg-base" d="M8 11a3 3 0 113-3 3 3 0 01-3 3zm0-5a2 2 0 102 2 2 2 0 00-2-2zm1.2 10H6.8a.8.8 0 01-.8-.8v-.41a1.76 1.76 0 00-2.7-1.5l-.3.22a.84.84 0 01-.6.1.8.8 0 01-.5-.36l-1.27-2a.81.81 0 01.25-1.11A2.46 2.46 0 002 8 2.46 2.46 0 00.83 5.89a.8.8 0 01-.25-1.1l1.27-2A.8.8 0 013 2.49l.35.22A1.76 1.76 0 006 1.21V.8a.8.8 0 01.8-.8h2.4a.8.8 0 01.8.8v.41a1.76 1.76 0 002.7 1.5l.35-.22a.8.8 0 011.1.26l1.27 2a.81.81 0 01-.25 1.11 2.49 2.49 0 000 4.22.8.8 0 01.25 1.1l-1.27 2a.8.8 0 01-1.1.26l-.35-.22a1.76 1.76 0 00-2.7 1.5v.41a.8.8 0 01-.8.87zM7 15h2v-.21a2.77 2.77 0 014.23-2.35l.18.11 1.06-1.7a3.5 3.5 0 010-5.7l-1.06-1.7-.18.11A2.77 2.77 0 019 1.21V1H7v.21a2.77 2.77 0 01-4.23 2.35l-.18-.11-1.06 1.7A3.47 3.47 0 013 8a3.47 3.47 0 01-1.47 2.85l1.06 1.7.18-.11A2.77 2.77 0 017 14.79zm7.64-4z"/></svg>